# xmcd CD database file
#
# Track frame offsets:
#	150
#	40123
#	62179
#	116466
#	141660
#	182393
#	211333
#
# Disc length: 3644 seconds
#
# Revision: 0
# Processed by: cddbd v1.5.2PL0 Copyright (c) Steve Scherf et al.
# Submitted via: CDex 1.82
#
DISCID=630e3a07
DTITLE=TRIO 3 REGGIE WORKMAN   ANDREW CYRILLE   OLIVER LAKE and  IRENE SCHWEIZER - BERNE CONCERT
DYEAR=2009
DGENRE=Jazz
TTITLE0=Flow
TTITLE1=R. I.  Exchange 1 
TTITLE2=Aubade
TTITLE3=Phrases
TTITLE4=Ballad of the Silf  
TTITLE5=Timbral Interplay 
TTITLE6=TRIO 3 REGGIE WORKMAN   ANDREW CYRILLE   OLIVER LAKE and  IRENE SCHWEIZER - WSLC
EXTD=YEAR: 2009
EXTT0=
EXTT1=
EXTT2=
EXTT3=
EXTT4=
EXTT5=
EXTT6=
PLAYORDER=
